<?xml version="1.0" encoding="utf-8"?>
<!-- Generator: Adobe Illustrator 19.1.0, SVG Export Plug-In . SVG Version: 6.00 Build 0)  -->
<svg version="1.1" id="Layer_1" xmlns="http://www.w3.org/2000/svg" xmlns:xlink="http://www.w3.org/1999/xlink" x="0px" y="0px"
	 viewBox="0 0 100 100" style="enable-background:new 0 0 100 100;" xml:space="preserve">
<path d="M50,2C23.5,2,2,23.5,2,50s21.5,48,48,48s48-21.5,48-48S76.5,2,50,2z M46.1,84.3C46.1,84.3,46.1,84.3,46.1,84.3
	c-1.8,1.2-3.9,1.9-6.2,1.9c-4.1,0-7.6-2.3-9.4-5.6c3.8,0.6,7.8,0.9,11.9,0.9c1.3,0,2.5,0,3.8-0.1L46.1,84.3z M46.2,79.6
	c-1.3,0.1-2.6,0.1-3.9,0.1c-4.4,0-8.6-0.4-12.7-1.1c0,0,0,0,0,0c-6-1-10.7-5.7-11.4-11.7c6.6,1.5,13.7,2.3,21.2,2.3
	c2.4,0,4.8-0.1,7.1-0.3L46.2,79.6z M46.7,67.1c-2.3,0.2-4.7,0.3-7.2,0.3c-7.5,0-14.7-0.8-21.3-2.3c0-1.2,0.2-2.4,0.6-3.5
	c-1.9-2.3-3.1-5.2-3.1-8.4c0-1.7,0.4-3.3,1-4.8c7,2.4,14.9,3.7,23.2,3.7c2.5,0,4.9-0.1,7.3-0.3L46.7,67.1z M47.3,49.8
	c-2.4,0.2-4.9,0.4-7.4,0.4c-8.1,0-15.7-1.3-22.4-3.5c0.1-0.1,0.1-0.2,0.2-0.3C17.2,44.9,17,43.5,17,42c0-3.1,1.1-6,3-8.3
	c6.8,2.2,14.4,3.5,22.5,3.5c1.8,0,3.6-0.1,5.3-0.2L47.3,49.8z M47.8,35.1c-1.8,0.1-3.6,0.2-5.4,0.2c-7.5,0-14.7-1.1-21.1-3.1
	c0.2-0.2,0.4-0.4,0.6-0.5c0.2-5.3,3.5-9.8,8.1-11.8c5.7,1.4,11.8,2.2,18.2,2.4L47.8,35.1z M48.5,15.2L48.4,17l-0.1,3.4
	c-5.1-0.1-10.1-0.7-14.7-1.6c0.5-0.6,1.1-1.2,1.7-1.7c1-0.8,2.1-1.5,3.3-2.1c1.8-0.8,3.7-1.3,5.8-1.3c1.5,0,2.9,0.2,4.2,0.6
	L48.5,15.2z M51.6,17l-0.1-1.9l0-0.8c1.3-0.4,2.7-0.6,4.2-0.6c2.1,0,4,0.5,5.8,1.3c1.2,0.5,2.3,1.2,3.3,2.1c0.6,0.5,1.2,1.1,1.7,1.7
	c-4.6,0.9-9.6,1.5-14.7,1.6L51.6,17z M51.8,22.3c6.4-0.2,12.5-1,18.2-2.4c4.7,2,7.9,6.5,8.1,11.8c0.2,0.2,0.4,0.4,0.6,0.5
	c-6.4,2-13.5,3.1-21.1,3.1c-1.8,0-3.6-0.1-5.4-0.2L51.8,22.3z M52.3,37c1.7,0.1,3.5,0.2,5.3,0.2c8.1,0,15.7-1.3,22.5-3.5
	c1.8,2.3,3,5.2,3,8.3c0,1.5-0.3,2.9-0.7,4.3c0.1,0.1,0.1,0.2,0.2,0.3c-6.7,2.2-14.3,3.5-22.4,3.5c-2.5,0-5-0.1-7.4-0.4L52.3,37z
	 M60.1,86.2c-2.3,0-4.4-0.7-6.2-1.9c0,0,0,0,0,0l-0.1-2.8c1.3,0.1,2.5,0.1,3.8,0.1c4.1,0,8.1-0.3,11.9-0.9
	C67.8,84,64.2,86.2,60.1,86.2z M70.3,78.6C70.3,78.6,70.3,78.6,70.3,78.6c-4.1,0.7-8.3,1.1-12.7,1.1c-1.3,0-2.6,0-3.9-0.1L53.4,69
	c2.3,0.2,4.7,0.3,7.1,0.3c7.5,0,14.6-0.8,21.2-2.3C81,72.9,76.3,77.7,70.3,78.6z M81.8,65.1c-6.6,1.5-13.8,2.3-21.3,2.3
	c-2.4,0-4.8-0.1-7.2-0.3l-0.5-15.5c2.4,0.2,4.8,0.3,7.3,0.3c8.4,0,16.3-1.3,23.2-3.7c0.6,1.5,1,3.1,1,4.8c0,3.2-1.2,6.1-3.1,8.4
	C81.6,62.7,81.8,63.8,81.8,65.1z"/>
</svg>
